<svg xmlns="http://www.w3.org/2000/svg" viewBox="0 0 96 96" role="img" aria-label="Map">
  <defs>
    <linearGradient id="map" x1="18" y1="18" x2="78" y2="82" gradientUnits="userSpaceOnUse">
      <stop stop-color="#10294a"/>
      <stop offset=".5" stop-color="#171137"/>
      <stop offset="1" stop-color="#031a20"/>
    </linearGradient>
    <linearGradient id="path" x1="22" y1="68" x2="76" y2="24" gradientUnits="userSpaceOnUse">
      <stop stop-color="#ffd166"/>
      <stop offset=".45" stop-color="#00ffbf"/>
      <stop offset="1" stop-color="#00f0ff"/>
    </linearGradient>
    <filter id="glow" x="-40%" y="-40%" width="180%" height="180%">
      <feGaussianBlur stdDeviation="2.6" result="blur"/>
      <feMerge><feMergeNode in="blur"/><feMergeNode in="SourceGraphic"/></feMerge>
    </filter>
  </defs>
  <rect x="7" y="7" width="82" height="82" rx="22" fill="#050914"/>
  <path d="M20 25 39 18l18 7 19-7v53l-19 7-18-7-19 7V25Z" fill="url(#map)" stroke="#00f0ff" stroke-width="3" stroke-linejoin="round"/>
  <path d="M39 18v53M57 25v53" stroke="#f2f0f4" stroke-width="2" opacity=".35"/>
  <path d="M25 66c11-24 37 1 46-31" fill="none" stroke="url(#path)" stroke-width="6" stroke-linecap="round" stroke-dasharray="2 9" filter="url(#glow)"/>
  <path d="M31 32 22 41l-9-9 9-9 9 9ZM83 60l-10 10-10-10 10-10 10 10Z" fill="#d11eff" stroke="#f2f0f4" stroke-width="3" stroke-linejoin="round" filter="url(#glow)"/>
  <circle cx="49" cy="51" r="5" fill="#ffd166"/>
</svg>
