<svg xmlns="http://www.w3.org/2000/svg" viewBox="0 0 96 96" role="img" aria-label="Command">
  <defs>
    <linearGradient id="bg" x1="18" y1="12" x2="82" y2="88" gradientUnits="userSpaceOnUse">
      <stop stop-color="#12244a"/>
      <stop offset=".48" stop-color="#130b30"/>
      <stop offset="1" stop-color="#07131f"/>
    </linearGradient>
    <linearGradient id="edge" x1="18" y1="14" x2="80" y2="82" gradientUnits="userSpaceOnUse">
      <stop stop-color="#00f0ff"/>
      <stop offset=".55" stop-color="#d11eff"/>
      <stop offset="1" stop-color="#ffd166"/>
    </linearGradient>
    <filter id="glow" x="-40%" y="-40%" width="180%" height="180%">
      <feGaussianBlur stdDeviation="2.8" result="blur"/>
      <feMerge>
        <feMergeNode in="blur"/>
        <feMergeNode in="SourceGraphic"/>
      </feMerge>
    </filter>
  </defs>
  <rect x="7" y="7" width="82" height="82" rx="22" fill="url(#bg)"/>
  <rect x="8.5" y="8.5" width="79" height="79" rx="20.5" fill="none" stroke="url(#edge)" stroke-width="3"/>
  <path d="M48 22 70 35v25L48 74 26 60V35L48 22Z" fill="#06101c" stroke="#00f0ff" stroke-width="4" stroke-linejoin="round" filter="url(#glow)"/>
  <path d="M48 22v25m0 27V47M26 35l22 12 22-12M26 60l22-13 22 13" fill="none" stroke="#f2f0f4" stroke-width="3" stroke-linecap="round" stroke-linejoin="round" opacity=".88"/>
  <circle cx="48" cy="47" r="6" fill="#ffd166" filter="url(#glow)"/>
  <path d="M21 25h10M65 71h10M72 23l5-5M20 76l5-5" stroke="#ff3edb" stroke-width="3" stroke-linecap="round" opacity=".9"/>
</svg>
