<svg xmlns="http://www.w3.org/2000/svg" viewBox="0 0 96 96" role="img" aria-label="Fill Cup">
  <defs>
    <linearGradient id="liquid" x1="22" y1="39" x2="69" y2="75" gradientUnits="userSpaceOnUse">
      <stop stop-color="#00ffbf"/>
      <stop offset=".48" stop-color="#00f0ff"/>
      <stop offset="1" stop-color="#d11eff"/>
    </linearGradient>
    <linearGradient id="glass" x1="24" y1="18" x2="69" y2="82" gradientUnits="userSpaceOnUse">
      <stop stop-color="#ffffff" stop-opacity=".28"/>
      <stop offset="1" stop-color="#ffffff" stop-opacity=".04"/>
    </linearGradient>
    <filter id="glow" x="-40%" y="-40%" width="180%" height="180%">
      <feGaussianBlur stdDeviation="2.8" result="blur"/>
      <feMerge><feMergeNode in="blur"/><feMergeNode in="SourceGraphic"/></feMerge>
    </filter>
    <clipPath id="cup">
      <path d="M29 23h36l-6 48c-1 6-6 10-12 10s-11-4-12-10L29 23Z"/>
    </clipPath>
  </defs>
  <rect x="7" y="7" width="82" height="82" rx="22" fill="#071018"/>
  <g clip-path="url(#cup)">
    <rect x="22" y="48" width="52" height="36" fill="url(#liquid)" filter="url(#glow)"/>
    <path d="M20 50c9-7 18 7 28 0s19 7 28 0v12H20V50Z" fill="#b9fbff" opacity=".32"/>
  </g>
  <path d="M29 23h36l-6 48c-1 6-6 10-12 10s-11-4-12-10L29 23Z" fill="url(#glass)" stroke="#f2f0f4" stroke-width="3" stroke-linejoin="round"/>
  <path d="M65 34h6c8 0 13 6 12 14-1 9-8 14-17 13" fill="none" stroke="#00f0ff" stroke-width="6" stroke-linecap="round" opacity=".9"/>
  <path d="M34 18c4-5 4-10 0-14M48 18c4-5 4-10 0-14M62 18c4-5 4-10 0-14" stroke="#ffd166" stroke-width="3" stroke-linecap="round" opacity=".9"/>
  <circle cx="39" cy="60" r="3" fill="#f2f0f4" opacity=".62"/>
  <circle cx="52" cy="67" r="2.5" fill="#f2f0f4" opacity=".5"/>
</svg>
